<?xml version="1.0" standalone="no"?>
<!DOCTYPE svg PUBLIC "-//W3C//DTD SVG 20010904//EN"
 "http://www.w3.org/TR/2001/REC-SVG-20010904/DTD/svg10.dtd">
<svg version="1.0" xmlns="http://www.w3.org/2000/svg"
 width="16.000000pt" height="16.000000pt" viewBox="0 0 16.000000 16.000000"
 preserveAspectRatio="xMidYMid meet">

<g transform="translate(0.000000,16.000000) scale(0.100000,-0.100000)"
fill="#000000" stroke="none">
<path d="M58 153 c-9 -2 -15 -10 -12 -18 3 -7 1 -16 -5 -20 -6 -3 -11 -11 -11
-18 0 -6 7 0 16 13 10 14 24 31 32 38 16 12 11 13 -20 5z"/>
<path d="M86 121 c-3 -4 1 -17 9 -27 14 -18 14 -18 15 -1 0 26 20 10 20 -16
l0 -21 16 22 c8 12 13 28 11 35 -3 6 -6 3 -6 -7 -1 -19 -2 -18 -24 2 -25 24
-33 26 -41 13z"/>
<path d="M50 65 c0 -8 4 -15 10 -15 5 0 7 7 4 15 -4 8 -8 15 -10 15 -2 0 -4
-7 -4 -15z"/>
</g>
</svg>
